<svg xmlns="http://www.w3.org/2000/svg" viewBox="0 0 128 160" x="0px" y="0px">
  <g>
    <g fill="#fff">
      <path
        d="M100.87,98.58c-4-4.33-3.32-8.69-2.46-14.2,.7-4.47,1.49-9.55-.3-15.42-.62-1.79-2.25-4.75-4.13-8.17-2.72-4.95-6.11-11.12-6.9-14.73,0-.04-.02-.08-.03-.12-.89-2.89-1.1-5.47-1.27-7.54-.23-2.81-.4-5.03-2.44-5.74-.05-.02-.11-.03-.16-.05-1.39-.32-2.77-.03-4.06,.78v-12.85c0-2.86-2.33-5.19-5.19-5.19H40.41c-2.86,0-5.19,2.33-5.19,5.19v8.74c-1.03-.27-2.06-.39-3.06-.32-.8,.05-2.45,.17-3.79,1.45-1.68,1.6-1.84,4.01-1.47,5.6,.28,1.16,1.1,2.82,5.08,5.35,1.06,.67,2.14,1.25,3.24,1.8v.27c-.12,0-.23-.02-.35-.02-3.65,0-6.63,2.97-6.63,6.63,0,2.22,1.1,4.18,2.78,5.38-1.68,1.2-2.78,3.17-2.78,5.38s1.03,4.04,2.61,5.25c-1.58,1.21-2.61,3.11-2.61,5.25,0,3.65,2.97,6.63,6.63,6.63,.12,0,.23-.01,.35-.02v11.51c0,2.86,2.33,5.19,5.19,5.19h10.84c1.7,3.59,5.07,8.82,10.54,9.83,.19,.03,.47,.1,.8,.18,1.47,.35,3.81,.91,5.67,.69,.02,0,.03,.02,.03,.02,.06,.09,.12,.21,.23,.4,.18,.33,.46,.83,.92,1.59,.77,1.28,1.34,2.67,1.7,4.14,.17,.69,.78,1.14,1.46,1.14,.12,0,.24-.01,.36-.04,.8-.2,1.3-1.01,1.1-1.81-.43-1.76-1.12-3.43-2.04-4.97-.44-.72-.69-1.19-.87-1.5-.47-.85-.61-1.04-1.39-1.56l-.32-.22c-.36-.25-.82-.33-1.24-.22-1.2,.31-3.71-.28-4.92-.57-.4-.1-.73-.17-.96-.21-3.65-.67-6.23-4.19-7.71-6.88h19.31c2.86,0,5.19-2.33,5.19-5.19v-17.63c.25-.4,.5-.81,.74-1.19,1.02-1.62,1.9-3.02,2.24-4.03,1.01-2.76-.51-5.94-2.26-9.62-.28-.59-.57-1.2-.86-1.82-1.35-2.92-2.6-6.08-2.63-9.39,0-.07,0-.13-.01-.2-.19-1.33,.72-5.1,2.52-7.74,.8-1.17,2.04-2.51,3.47-2.31,.25,.42,.37,1.92,.47,3.13,.17,2.09,.4,4.95,1.37,8.13,.9,4.03,4.24,10.11,7.18,15.47,1.74,3.17,3.38,6.16,3.9,7.65,1.57,5.16,.86,9.66,.18,14.02-.91,5.81-1.76,11.3,3.23,16.7,.3,.32,.7,.48,1.1,.48,.36,0,.73-.13,1.02-.4,.61-.56,.65-1.51,.08-2.12ZM40.41,18.36h33.53c1.21,0,2.19,.98,2.19,2.19v1.31H38.22v-1.31c0-1.21,.98-2.19,2.19-2.19Zm-6.83,20.48c-2.23-1.42-3.57-2.66-3.77-3.5-.2-.85-.09-2.07,.62-2.74,.52-.49,1.24-.58,1.93-.63,.91-.06,1.87,.1,2.86,.45v7.38c-.55-.3-1.1-.62-1.64-.96Zm1.29,7.59c2,0,3.63,1.63,3.63,3.63s-1.63,3.63-3.63,3.63-3.63-1.63-3.63-3.63,1.63-3.63,3.63-3.63Zm0,18.02c-2,0-3.63-1.63-3.63-3.63s1.63-3.63,3.63-3.63,3.63,1.63,3.63,3.63-1.63,3.63-3.63,3.63Zm-3.63,6.88c0-2,1.63-3.63,3.63-3.63s3.63,1.63,3.63,3.63-1.63,3.63-3.63,3.63-3.63-1.63-3.63-3.63Zm10.25,0c0-2.14-1.03-4.04-2.61-5.25,1.58-1.21,2.61-3.11,2.61-5.25s-1.1-4.18-2.78-5.38c1.68-1.2,2.78-3.17,2.78-5.38,0-2.43-1.32-4.56-3.28-5.71V24.87h37.91v11.69c-1.97,3.11-3.01,7.2-2.77,9.32,.05,3.73,1.4,7.24,2.77,10.23v29.12H38.22v-8.19c1.96-1.15,3.28-3.28,3.28-5.71Zm32.44,20.31H40.41c-1.21,0-2.19-.98-2.19-2.19v-1.22h37.91v1.22c0,1.21-.98,2.19-2.19,2.19Zm5.35-26.05c-.04,.11-.09,.24-.16,.38v-2.98c.3,1.02,.41,1.92,.16,2.6Z" />
      <path
        d="M50.35,58.26c.44,0,.79-.39,.72-.84-.05-.37-.41-.62-.78-.62h-2.81c-.37,0-.73,.25-.78,.62-.06,.45,.28,.84,.72,.84h2.92Z" />
      <path
        d="M50.83,59.72h-2.66c-.98,0-1.78,.8-1.78,1.78v2.66c0,.98,.8,1.78,1.78,1.78h2.66c.98,0,1.78-.8,1.78-1.78v-2.66c0-.98-.8-1.78-1.78-1.78Zm.31,4.13c0,.14-.11,.25-.25,.25h-2.42c-.14,0-.25-.11-.25-.25v-2.42c0-.14,.11-.25,.25-.25h2.42c.14,0,.25,.11,.25,.25v2.42Z" />
      <path
        d="M55.67,57.43c-.05-.37-.41-.62-.78-.62h-1.35c-.37,0-.73,.25-.78,.62-.06,.45,.28,.84,.72,.84h1.46c.44,0,.79-.39,.72-.84Z" />
      <path
        d="M58.03,62.65h-2.84c-.42,0-.76,.34-.76,.76v1.43c0,.44,.39,.79,.84,.72,.37-.05,.62-.41,.62-.78v-.67h2.19c.44,0,.79-.39,.72-.84-.05-.37-.41-.62-.78-.62Z" />
      <path
        d="M42.8,70.32h6.06s.09-.02,.12-.05c.66-.64,.22-1.41-.4-1.41h-4.64c-.26,0-.48-.21-.48-.48v-4.64c0-.62-.78-1.06-1.41-.4-.03,.03-.05,.08-.05,.12v6.06c0,.44,.36,.8,.8,.8Z" />
      <path
        d="M43.47,46.57v-4.64c0-.26,.21-.48,.48-.48h4.64c.62,0,1.06-.78,.4-1.41-.03-.03-.08-.05-.12-.05h-6.06c-.44,0-.8,.36-.8,.8v6.06s.02,.09,.05,.12c.64,.66,1.41,.22,1.41-.4Z" />
      <path
        d="M55.01,49.13h1.46c.44,0,.79-.39,.72-.84-.05-.37-.41-.62-.78-.62h-1.35c-.37,0-.73,.25-.78,.62-.06,.45,.28,.84,.72,.84Z" />
      <path
        d="M63.52,50.59h2.66c.98,0,1.78-.8,1.78-1.78v-2.66c0-.98-.8-1.78-1.78-1.78h-2.66c-.98,0-1.78,.8-1.78,1.78v2.66c0,.98,.8,1.78,1.78,1.78Zm.05-4.13c0-.14,.11-.25,.25-.25h2.42c.14,0,.25,.11,.25,.25v2.42c0,.14-.11,.25-.25,.25h-2.42c-.14,0-.25-.11-.25-.25v-2.42Z" />
      <path
        d="M46.39,46.15v2.66c0,.98,.8,1.78,1.78,1.78h2.66c.98,0,1.78-.8,1.78-1.78v-2.66c0-.98-.8-1.78-1.78-1.78h-2.66c-.98,0-1.78,.8-1.78,1.78Zm1.83,.3c0-.14,.11-.25,.25-.25h2.42c.14,0,.25,.11,.25,.25v2.42c0,.14-.11,.25-.25,.25h-2.42c-.14,0-.25-.11-.25-.25v-2.42Z" />
      <path
        d="M60.28,57.56c0-.42-.34-.76-.76-.76h-1.43c-.44,0-.79,.39-.72,.84,.05,.37,.41,.62,.78,.62h.67v1.46h-3.65c-.44,0-.79,.39-.72,.84,.05,.37,.41,.62,.78,.62h4.3c.42,0,.76-.34,.76-.76v-2.86Z" />
      <path
        d="M52.6,52.74c0-.38-.31-.69-.69-.69h-1.51c-.52,0-.91,.55-.64,1.1,.12,.23,.37,.37,.63,.37h.74v.7c0,.15,.05,.28,.13,.4h-3.15c.05-.11,.09-.23,.09-.36v-1.35c0-.37-.25-.73-.62-.78-.45-.06-.84,.28-.84,.72v1.46c0,.11,.02,.21,.07,.3h-3.99c-.28,0-.5,.22-.5,.5s.22,.5,.5,.5h18.91v.19c0,.44,.39,.79,.84,.72,.37-.05,.62-.41,.62-.78v-.13h3.29v.09c0,.52,.55,.91,1.1,.64,.23-.12,.37-.37,.37-.63v-.1h3.67c.28,0,.5-.22,.5-.5s-.22-.5-.5-.5h-3.67v-1.83c0-.52-.55-.91-1.1-.64-.23,.12-.37,.37-.37,.63v.74h-.73c-.52,0-.91,.55-.64,1.1h-1.92v-1.68c0-.37-.25-.73-.62-.78-.45-.06-.84,.28-.84,.72v1.74h-1.57c.12-.2,.15-.47,.02-.73-.12-.24-.37-.37-.64-.37h-.74v-1.46h.73c.44,0,.79-.39,.72-.84-.05-.37-.41-.62-.78-.62h-4.33c-.44,0-.79,.39-.72,.84,.05,.37,.41,.62,.78,.62h2.14v1.46h-.73c-.52,0-.91,.54-.64,1.09h-2.03c.08-.13,.14-.29,.11-.47-.05-.37-.41-.62-.78-.62h-.67v-.78Z" />
      <path
        d="M55.22,45.84h3.6v2.19c0,.44,.39,.79,.84,.72,.37-.05,.62-.41,.62-.78v-2.84c0-.42-.34-.76-.76-.76h-4.36c-.44,0-.79,.39-.72,.84,.05,.37,.41,.62,.78,.62Z" />
      <path
        d="M67.95,64.88v-1.5c0-.52-.54-.91-1.09-.64-.24,.12-.37,.38-.37,.64v.74h-1.83v-.76c0-.48-.43-.86-.91-.74-.34,.08-.56,.41-.56,.76v.74h-1.46v-.73c0-.44-.39-.79-.84-.72-.37,.05-.62,.41-.62,.78v1.38c0,.42,.34,.76,.76,.76h6.22c.38,0,.69-.31,.69-.69Z" />
      <path
        d="M65.76,41.45h4.64c.26,0,.48,.21,.48,.48v4.64c0,.62,.78,1.06,1.41,.4,.03-.03,.05-.08,.05-.12v-6.06c0-.44-.36-.8-.8-.8h-6.06s-.09,.02-.12,.05c-.66,.64-.22,1.41,.4,1.41Z" />
      <path
        d="M62.3,58.16c-.34,.08-.56,.41-.56,.76v1.51c0,.41,.34,.75,.75,.75h3.24c.42,0,.76-.34,.76-.76v-.7h.37c.44,0,.79-.39,.72-.84-.05-.37-.41-.62-.78-.62h-1.38c-.42,0-.76,.34-.76,.76v.7h-1.46v-.82c0-.48-.43-.86-.91-.74Z" />
      <path
        d="M70.88,63.74v4.64c0,.26-.21,.48-.48,.48h-4.64c-.62,0-1.06,.78-.4,1.41,.03,.03,.08,.05,.12,.05h6.06c.44,0,.8-.36,.8-.8v-6.06s-.02-.09-.05-.12c-.64-.66-1.41-.22-1.41,.4Z" />
    </g>
  </g>
</svg>